<svg xmlns="http://www.w3.org/2000/svg" xmlns:xlink="http://www.w3.org/1999/xlink" width="420" height="420" viewBox="0 0 420 420">
  <defs>
    <clipPath id="a">
      <circle cx="210" cy="210" r="82.093" fill="none" stroke="#000" stroke-miterlimit="10" stroke-width="6"/>
    </clipPath>
  </defs>
  <g>
    <path d="M154.226,114.225a120.541,120.541,0,0,1,38.5-13.194c-6.7-14.847-13.144-35.5-6.431-47.411,4.079-7.237,13.305-10.906,27.424-10.906h.02c19.576.005,25.424,5.788,27.171,9.216a16.4,16.4,0,0,0-2.249,2.5,20.459,20.459,0,0,0-3.938,12.361,18.841,18.841,0,0,0,5.952,14.377,20.717,20.717,0,0,0,14.744,5.586q9.159,0,14.467-5.861A20.734,20.734,0,0,0,275.2,66.422q0-9.889-7.693-18.955T246.261,32.725a85.808,85.808,0,0,0-33.331-6.41q-19.779,0-34.705,7.417a54.98,54.98,0,0,0-23.076,20.786Q147,67.889,147,85.286a58.392,58.392,0,0,0,6.959,28.478C154.043,113.918,154.141,114.071,154.226,114.225Z"/>
    <path d="M230.185,320.865c5.95,14.348,10.721,32.4,4.619,43.229C230.725,371.331,221.5,375,207.38,375h-.02c-19.577,0-25.424-5.788-27.171-9.215a16.451,16.451,0,0,0,2.249-2.5,20.457,20.457,0,0,0,3.938-12.361,18.838,18.838,0,0,0-5.953-14.377,20.713,20.713,0,0,0-14.743-5.586q-9.159,0-14.468,5.861a20.734,20.734,0,0,0-5.311,14.468q0,9.89,7.692,18.955t21.244,14.742a85.8,85.8,0,0,0,33.332,6.41q19.779,0,34.7-7.417A54.98,54.98,0,0,0,265.95,363.2q8.145-13.371,8.149-30.767a59.42,59.42,0,0,0-4.953-24.368A120.51,120.51,0,0,1,230.185,320.865Z"/>
    <g>
      <path d="M210,295.047A85.047,85.047,0,1,1,295.047,210,85.143,85.143,0,0,1,210,295.047Zm0-164.187A79.14,79.14,0,1,0,289.14,210,79.23,79.23,0,0,0,210,130.86Z" stroke="#000" stroke-miterlimit="10" stroke-width="6"/>
      <g>
        <polygon points="222.019 198.523 250.458 203.027 263.53 177.372 243.17 157.011 217.515 170.083 222.019 198.523" stroke="#000" stroke-miterlimit="10" stroke-width="6"/>
        <path d="M252.116,206.28,219.438,201.1l-5.176-32.678,29.479-15.021,23.4,23.4ZM224.6,195.942l24.2,3.832,11.124-21.832L242.6,160.617l-21.832,11.124Z" stroke="#000" stroke-miterlimit="10" stroke-width="6"/>
      </g>
      <g>
        <polygon points="176.603 265.52 202.258 252.447 197.754 224.008 169.315 219.504 156.242 245.159 176.603 265.52" stroke="#000" stroke-miterlimit="10" stroke-width="6"/>
        <path d="M176.032,269.125l-23.4-23.4,15.02-29.479,32.678,5.176,5.176,32.678Zm-16.184-24.537,17.326,17.326,21.831-11.124-3.833-24.2-24.2-3.833Z" stroke="#000" stroke-miterlimit="10" stroke-width="6"/>
      </g>
      <g>
        <line x1="249.745" y1="203.027" x2="261.654" y2="246.848" stroke="#000" stroke-miterlimit="10" stroke-width="6"/>
        <polygon points="259.593 247.863 247.685 204.042 251.806 202.012 263.714 245.833 259.593 247.863" stroke="#000" stroke-miterlimit="10" stroke-width="6"/>
      </g>
      <g>
        <line x1="197.754" y1="224.008" x2="222.019" y2="198.523" stroke="#000" stroke-miterlimit="10" stroke-width="6"/>
        <rect x="192.292" y="208.312" width="35.19" height="5.907" transform="translate(-87.847 217.59) rotate(-46.405)" stroke="#000" stroke-miterlimit="10" stroke-width="6"/>
      </g>
      <g>
        <line x1="141.842" y1="245.159" x2="156.242" y2="245.159" stroke="#000" stroke-miterlimit="10" stroke-width="6"/>
        <rect x="141.842" y="242.206" width="14.4" height="5.907" stroke="#000" stroke-miterlimit="10" stroke-width="6"/>
      </g>
      <g>
        <line x1="161.98" y1="181.084" x2="169.315" y2="219.518" stroke="#000" stroke-miterlimit="10" stroke-width="6"/>
        <polygon points="166.411 220.043 159.077 181.608 164.884 180.558 172.218 218.993 166.411 220.043" stroke="#000" stroke-miterlimit="10" stroke-width="6"/>
      </g>
      <g>
        <line x1="182.383" y1="162.576" x2="218.472" y2="169.166" stroke="#000" stroke-miterlimit="10" stroke-width="6"/>
        <rect x="197.474" y="147.528" width="5.907" height="36.686" transform="translate(1.25 333.241) rotate(-79.651)" stroke="#000" stroke-miterlimit="10" stroke-width="6"/>
      </g>
      <g>
        <line x1="243.596" y1="157.634" x2="246.395" y2="138.455" stroke="#000" stroke-miterlimit="10" stroke-width="6"/>
        <rect x="235.304" y="145.091" width="19.382" height="5.907" transform="translate(63.134 369.103) rotate(-81.7)" stroke="#000" stroke-miterlimit="10" stroke-width="6"/>
      </g>
      <g>
        <line x1="263.53" y1="177.372" x2="286.445" y2="180.019" stroke="#000" stroke-miterlimit="10" stroke-width="6"/>
        <rect x="272.034" y="167.162" width="5.906" height="23.067" transform="translate(65.91 431.355) rotate(-83.409)" stroke="#000" stroke-miterlimit="10" stroke-width="6"/>
      </g>
      <g>
        <line x1="202.258" y1="251.788" x2="239.156" y2="264.318" stroke="#000" stroke-miterlimit="10" stroke-width="6"/>
        <polygon points="237.944 266.351 201.047 253.821 203.47 249.754 240.367 262.284 237.944 266.351" stroke="#000" stroke-miterlimit="10" stroke-width="6"/>
      </g>
      <g>
        <line x1="176.603" y1="265.52" x2="179.596" y2="286.279" stroke="#000" stroke-miterlimit="10" stroke-width="6"/>
        <rect x="175.146" y="265.412" width="5.907" height="20.974" transform="translate(-37.552 28.241) rotate(-8.205)" stroke="#000" stroke-miterlimit="10" stroke-width="6"/>
      </g>
      <g>
        <g clip-path="url(#a)">
          <g>
            <polygon points="124.918 268.454 141.842 245.159 124.918 221.865 97.533 230.762 97.533 259.556 124.918 268.454" stroke="#000" stroke-miterlimit="10" stroke-width="6"/>
            <path d="M126.046,271.926,94.58,261.7V228.617l31.466-10.224,19.447,26.766Zm-25.56-14.516,23.3,7.572,14.4-19.823-14.4-19.822-23.3,7.571Z" stroke="#000" stroke-miterlimit="10" stroke-width="6"/>
          </g>
          <g>
            <polygon points="283.996 290.361 291.22 255.9 260.678 238.381 234.578 262.014 248.989 294.14 283.996 290.361" stroke="#000" stroke-miterlimit="10" stroke-width="6"/>
            <path d="M247.172,297.306l-16.167-36.041,29.281-26.514,34.265,19.655-8.1,38.661Zm-9.021-34.544,12.654,28.211,30.74-3.318,6.344-30.26L261.07,242.01Z" stroke="#000" stroke-miterlimit="10" stroke-width="6"/>
          </g>
          <g>
            <polygon points="151.725 152.249 144.02 177.487 164.496 185.38 184.857 165.02 176.964 144.543 151.725 152.249" stroke="#000" stroke-miterlimit="10" stroke-width="6"/>
            <path d="M165.227,188.826l-24.834-9.572,8.967-29.371,29.371-8.967L188.3,165.75Zm-17.58-13.106,16.119,6.213,17.644-17.644L175.2,148.171l-21.106,6.443Z" stroke="#000" stroke-miterlimit="10" stroke-width="6"/>
          </g>
        </g>
        <circle cx="210" cy="210" r="82.093" fill="none" stroke="#000" stroke-miterlimit="10" stroke-width="6"/>
      </g>
    </g>
  </g>
</svg>
