<svg width="34" height="69" viewBox="0 0 34 69" fill="none" xmlns="http://www.w3.org/2000/svg">
<path d="M6.02014 16.6142C8.29602 15.3986 10.8 14.5415 13.4532 14.1211C12.1601 11.3151 10.9152 7.4109 12.2116 5.16004C12.9991 3.79236 14.7804 3.09928 17.507 3.09928H17.5114C21.291 3.10037 22.4207 4.19321 22.7575 4.84066C22.5951 4.98405 22.4503 5.14157 22.3231 5.31212C21.8164 5.99325 21.563 6.77214 21.563 7.6488C21.563 8.75685 21.9469 9.66285 22.7125 10.3657C23.4792 11.0696 24.4279 11.4216 25.5587 11.4216C26.7378 11.4216 27.669 11.0523 28.3523 10.3136C29.0367 9.57594 29.3778 8.66452 29.3778 7.57928C29.3778 6.33327 28.8831 5.1394 27.8927 3.99658C26.9023 2.85486 25.5357 1.92605 23.7907 1.21016C21.8098 0.404112 19.6656 0 17.3546 0C14.8089 0 12.5758 0.467119 10.6542 1.40136C8.73255 2.3356 7.24747 3.6457 6.19892 5.3295C5.15037 7.01439 4.625 8.95239 4.625 11.1446C4.625 13.1293 5.0736 14.9228 5.96859 16.5273C5.98504 16.5567 6.00369 16.586 6.02014 16.6142Z" fill="#282828"/>
<path d="M20.8965 55.6686C22.0449 58.3801 22.9662 61.7933 21.7882 63.8389C21.0007 65.2066 19.2195 65.8996 16.4928 65.8996H16.4885C12.7088 65.8986 11.5791 64.8057 11.2424 64.1583C11.4047 64.0149 11.5495 63.8574 11.6767 63.6868C12.1835 63.0057 12.4368 62.2268 12.4368 61.3501C12.4368 60.2421 12.053 59.3361 11.2874 58.6332C10.5207 57.9293 9.57197 57.5773 8.44116 57.5773C7.26209 57.5773 6.3309 57.9467 5.64759 58.6854C4.96318 59.423 4.62207 60.3344 4.62207 61.4196C4.62207 62.6657 5.11673 63.8595 6.10715 65.0023C7.09757 66.1441 8.46419 67.0729 10.2092 67.7888C12.189 68.5959 14.3343 69 16.6453 69C19.191 69 21.4241 68.5329 23.3457 67.5987C25.2673 66.6644 26.7524 65.3543 27.8009 63.6705C28.8495 61.9856 29.3749 60.0476 29.3749 57.8554C29.3749 56.1847 29.0535 54.6508 28.4184 53.2505C26.113 54.4476 23.5793 55.2808 20.8965 55.6686Z" fill="#282828"/>
<path d="M16.9995 18.0753C7.62612 18.0753 0 25.5406 0 34.7157C0 43.8907 7.62612 51.356 16.9995 51.356C26.3739 51.356 34 43.8907 34 34.7157C34 25.5406 26.3739 18.0753 16.9995 18.0753ZM2.29891 34.7157C2.29891 32.8483 2.66854 31.0645 3.33211 29.4263L6.85177 30.7538L7.942 36.3441L5.91619 40.2353H4.42563L2.65428 37.8486C2.42395 36.8394 2.29891 35.7922 2.29891 34.7157ZM18.0963 32.1737L14.219 36.1594L10.1203 35.5239L9.18139 30.706L12.8568 27.1081L17.4086 27.9218L18.0963 32.1737ZM15.8599 37.7367L19.7371 33.751L23.8995 34.3963L25.3977 39.792L21.254 43.4649L16.5322 41.8952L15.8599 37.7367ZM27.3138 39.1185L25.8573 33.8694L27.9983 29.7566L30.9169 30.0868C31.4225 31.5403 31.7022 33.097 31.7022 34.7157C31.7022 37.0089 31.1483 39.1761 30.1699 41.1021L27.3138 39.1185ZM27.8655 27.4764L24.7122 24.3901L24.9733 22.6357C26.9815 23.91 28.6531 25.6492 29.8266 27.698L27.8655 27.4764ZM22.4605 23.9089L18.58 25.8447L12.8261 24.816L11.4748 21.3843C13.1815 20.7043 15.046 20.3262 16.9995 20.3262C19.0658 20.3262 21.0335 20.7477 22.8191 21.5038L22.4605 23.9089ZM4.72067 42.4861H6.14433L9.46876 45.7397L9.68264 47.1877C7.66999 46.0514 5.95677 44.4643 4.68886 42.5654L4.72067 42.4861ZM11.8072 45.845L15.8983 43.8049L20.9096 45.4703L22.1556 48.1904C20.5498 48.7814 18.8136 49.1062 16.9995 49.1062C15.3071 49.1062 13.6827 48.8216 12.168 48.3045L11.8072 45.845Z" fill="#282828"/>
</svg>
